<svg width="24" height="24" viewBox="0 0 24 24" fill="none" xmlns="http://www.w3.org/2000/svg">
<path d="M5.13965 10.9658C4.58965 10.9658 4.11865 10.7698 3.72665 10.3778C3.33531 9.98649 3.13965 9.51582 3.13965 8.96582V4.96582C3.13965 4.41582 3.33531 3.94482 3.72665 3.55282C4.11865 3.16149 4.58965 2.96582 5.13965 2.96582H19.1396C19.6896 2.96582 20.1606 3.16149 20.5526 3.55282C20.944 3.94482 21.1396 4.41582 21.1396 4.96582V8.96582C21.1396 9.51582 20.944 9.98649 20.5526 10.3778C20.1606 10.7698 19.6896 10.9658 19.1396 10.9658H5.13965ZM5.13965 20.9658C4.58965 20.9658 4.11865 20.7702 3.72665 20.3788C3.33531 19.9868 3.13965 19.5158 3.13965 18.9658V14.9658C3.13965 14.4158 3.33531 13.9448 3.72665 13.5528C4.11865 13.1615 4.58965 12.9658 5.13965 12.9658H19.1396C19.6896 12.9658 20.1606 13.1615 20.5526 13.5528C20.944 13.9448 21.1396 14.4158 21.1396 14.9658V18.9658C21.1396 19.5158 20.944 19.9868 20.5526 20.3788C20.1606 20.7702 19.6896 20.9658 19.1396 20.9658H5.13965Z" fill="currentColor"/>
</svg>
