<svg width="24" height="24" viewBox="0 0 24 24" fill="none" xmlns="http://www.w3.org/2000/svg">
<path fill-rule="evenodd" clip-rule="evenodd" d="M16.5148 19.3432C14.9339 20.3902 13.0382 21 11 21C5.47715 21 1 16.5228 1 11C1 5.47715 5.47715 1 11 1C16.5228 1 21 5.47715 21 11C21 13.0382 20.3902 14.9339 19.3432 16.5148L22.4146 19.5862C23.1957 20.3672 23.1957 21.6336 22.4146 22.4146C21.6336 23.1957 20.3672 23.1957 19.5862 22.4146L16.5148 19.3432ZM5 11C5 7.68629 7.68629 5 11 5C14.3137 5 17 7.68629 17 11C17 12.5969 16.3761 14.0481 15.3588 15.1232C15.3168 15.1588 15.2759 15.1965 15.2362 15.2362C15.1965 15.2759 15.1588 15.3168 15.1232 15.3588C14.0481 16.3761 12.5969 17 11 17C7.68629 17 5 14.3137 5 11Z" fill="currentColor"/>
</svg>
