<svg width="24" height="24" viewBox="0 0 24 24" fill="none" xmlns="http://www.w3.org/2000/svg">
<path d="M10.7471 2.48193C12.9201 2.42249 15.0334 3.19815 16.6523 4.64893C18.2711 6.09962 19.2729 8.11538 19.4512 10.2817C19.6294 12.4483 18.9704 14.6015 17.6104 16.2974L17.3291 16.6479L17.6484 16.9653L21.3496 20.6372H21.3506C21.4407 20.7304 21.4912 20.8552 21.4912 20.9849C21.4912 21.1135 21.4413 21.2366 21.3525 21.3296C21.3065 21.3754 21.2523 21.412 21.1924 21.437C21.1315 21.4623 21.0659 21.4761 21 21.4761C20.9341 21.476 20.8684 21.4623 20.8076 21.437C20.7469 21.4116 20.6919 21.3744 20.6455 21.3276L20.6436 21.3267L16.9639 17.646L16.6475 17.3296L16.2979 17.6099C14.602 18.97 12.4488 19.6289 10.2822 19.4507C8.11587 19.2724 6.10011 18.2706 4.64941 16.6519C3.19864 15.033 2.42298 12.9196 2.48242 10.7466C2.54188 8.57352 3.43159 6.50542 4.96875 4.96826C6.50591 3.4311 8.57401 2.5414 10.7471 2.48193ZM13.8701 4.0708C12.4998 3.50326 10.9918 3.35468 9.53711 3.64404C8.08229 3.93345 6.74613 4.64791 5.69727 5.69678C4.6484 6.74565 3.93393 8.08181 3.64453 9.53662C3.35517 10.9914 3.50375 12.4993 4.07129 13.8696C4.63895 15.2401 5.60062 16.4117 6.83398 17.2358C8.0672 18.0598 9.51686 18.4994 11 18.4995C12.9891 18.4995 14.8972 17.7097 16.3037 16.3032C17.7102 14.8967 18.5 12.9886 18.5 10.9995C18.4999 9.51637 18.0603 8.06671 17.2363 6.8335C16.4122 5.60013 15.2406 4.63846 13.8701 4.0708Z" fill="currentColor" stroke="currentColor"/>
</svg>
