<svg width="24" height="24" viewBox="0 0 24 24" fill="none" xmlns="http://www.w3.org/2000/svg">
<path d="M8.50028 11.5C10.7003 11.5 12.5003 9.7 12.5003 7.5C12.5003 5.3 10.7003 3.5 8.50028 3.5C6.30028 3.5 4.50028 5.3 4.50028 7.5C4.50028 9.7 6.30028 11.5 8.50028 11.5ZM13.0003 10.6C14.7003 12 17.2003 11.7 18.6003 10C20.0003 8.3 19.7003 5.8 18.0003 4.4C17.3003 3.8 16.4003 3.5 15.5003 3.5C14.6003 3.5 13.7003 3.8 13.0003 4.4C14.7003 5.8 15.0003 8.2 13.6003 10C13.5003 10.2 13.2003 10.4 13.0003 10.6ZM22.9003 19.4C22.3003 15.7 19.2003 13 15.5003 13C14.6003 13 13.8003 13.1 13.0003 13.4C15.6003 14.3 17.5003 16.6 17.9003 19.3C18.0003 19.8 17.6003 20.4 17.0003 20.4H16.9003H21.9003C22.5003 20.4 22.9003 20 22.9003 19.4C22.9003 19.4 22.9003 19.5 22.9003 19.4ZM8.50028 13C4.80028 13 1.60028 15.7 1.10028 19.4C1.00028 19.9 1.40028 20.5 2.00028 20.5H2.10028H14.9003C15.5003 20.5 15.9003 20.1 15.9003 19.5V19.4C15.4003 15.7 12.2003 13 8.50028 13Z" fill="currentColor"/>
</svg>
